<svg viewBox="403.8305 222.1299 343.2351 127.3397" width="5000" height="1854.9923944258614" xmlns="http://www.w3.org/2000/svg" xmlns:xlink="http://www.w3.org/1999/xlink" preserveAspectRatio="none"><defs></defs><style>.aD6z1nYkhcolor {fill:#FFFFFF;fill-opacity:1;}.aIptOCySncolors-0 {fill:#FFFFFF;fill-opacity:1;}.aMMOT-Dkd30filter-floo {flood-color:#4B4B4B;flood-opacity:0.39;}.companyName {fill:#FFFFFF;fill-opacity:1;}.shapeStroke-str {stroke:#D9D9D9;stroke-opacity:1;}</style><defs>
      <filter
        x="-1000"
        y="-1000"
        width="5000"
        height="5000"
        id="MMOT-Dkd3"
        filterUnits="userSpaceOnUse"
        primitiveUnits="userSpaceOnUse"
        color-interpolation-filters="sRGB">
        
    <feGaussianBlur in="SourceGraphic" stdDeviation="0"/>
    <feOffset dx="2" dy="0" result="cCjZM0jRjP"/>
    <feFlood flood-color="#4B4B4B" flood-opacity="0.39" in="cCjZM0jRjP" />
    <feComposite  in2="cCjZM0jRjP" operator="in" result="UdzlMBXrb2"/><feMerge result="fQBIX8hvEh"><feMergeNode in="UdzlMBXrb2" /><feMergeNode in="SourceGraphic" /></feMerge>
      </filter></defs><g filter="url(#MMOT-Dkd3)"><g opacity="1" transform="rotate(0 538.87 229.2889)">
<svg width="206.1956" height="114.0461" x="538.87" y="229.2889" version="1.1" preserveAspectRatio="none" viewBox="3.8672 -30.8594 148.6172 82.1953">
  <g transform="matrix(1 0 0 1 0 0)" class="aD6z1nYkhcolor"><path d="M7.66 0L3.87 0L3.87-29.80L8.67-29.80L14.77-14.53Q15.39-12.89 16.37-10.10Q17.34-7.30 17.50-6.91L17.50-6.91L17.66-6.91Q17.85-7.50 20.51-14.53L20.51-14.53L26.52-29.80L31.41-29.80L31.41 0L27.62 0L27.62-15.70Q27.62-19.45 28.05-24.77L28.05-24.77L27.89-24.77L26.17-20L19.18-2.03L16.09-2.03L9.10-20L7.30-24.80L7.15-24.80Q7.66-18.71 7.66-15.70L7.66-15.70L7.66 0Z M38.43-5.70L38.43-5.70Q38.43-4.30 39.60-3.32Q40.77-2.34 42.77-2.34L42.77-2.34Q45.42-2.34 47.28-4.06Q49.13-5.78 49.13-8.48L49.13-8.48L49.13-11.13Q47.57-10.74 44.05-10.20L44.05-10.20Q38.43-9.26 38.43-5.70ZM34.76-5.39L34.76-5.39Q34.76-11.45 43.94-12.85L43.94-12.85Q47.92-13.48 49.13-13.87L49.13-13.87L49.13-15.08Q49.13-16.95 47.82-18.13Q46.52-19.30 44.13-19.30L44.13-19.30Q42.26-19.30 40.52-18.42Q38.78-17.54 37.61-16.09L37.61-16.09L35.30-18.05Q36.91-19.96 39.21-21.09Q41.52-22.23 44.05-22.23L44.05-22.23Q52.77-22.23 52.77-13.63L52.77-13.63L52.77 0L49.25 0L49.25-3.24Q48.59-1.64 46.71-0.47Q44.84 0.70 42.30 0.70L42.30 0.70Q38.74 0.70 36.75-1.00Q34.76-2.70 34.76-5.39Z M58.85-11.17L58.85-11.17Q58.85-7.54 60.41-5.37Q61.98-3.20 64.48-3.20L64.48-3.20Q66.98-3.20 68.48-5.31Q69.98-7.42 69.98-11.21L69.98-11.21Q69.98-14.92 68.46-17.03Q66.94-19.14 64.52-19.14L64.52-19.14Q61.94-19.14 60.39-16.91Q58.85-14.69 58.85-11.17ZM55.14-11.13L55.14-11.13Q55.14-16.13 57.64-19.18Q60.14-22.23 64.05-22.23L64.05-22.23Q66.35-22.23 67.86-21.04Q69.36-19.84 69.98-18.36L69.98-18.36L69.98-21.52L73.62-21.52L73.62-2.70Q73.62 3.40 71.37 6.37Q69.13 9.34 64.32 9.34L64.32 9.34Q59.05 9.34 56.16 5.35L56.16 5.35L58.66 3.67Q61.04 6.37 64.40 6.37L64.40 6.37Q66.98 6.37 68.46 4.38Q69.95 2.38 69.98-0.90L69.98-0.90Q69.98-1.45 70.00-2.42Q70.02-3.40 70.02-3.79L70.02-3.79Q69.24-2.19 67.72-1.15Q66.20-0.12 64.16-0.12L64.16-0.12Q60.10-0.12 57.62-3.18Q55.14-6.25 55.14-11.13Z M76.23-10.90L76.23-10.90Q76.23-15.98 79-19.10Q81.77-22.23 86.11-22.23L86.11-22.23Q90.45-22.23 93.04-19.14Q95.64-16.05 95.64-11.25L95.64-11.25Q95.64-10.63 95.56-9.53L95.56-9.53L79.94-9.53Q79.94-6.56 81.64-4.43Q83.34-2.30 86.30-2.30L86.30-2.30Q90.29-2.30 92.13-5.74L92.13-5.74L95.21-4.77Q94.20-2.38 91.91-0.84Q89.63 0.70 86.27 0.70L86.27 0.70Q81.77 0.70 79-2.48Q76.23-5.66 76.23-10.90ZM80.02-12.23L80.02-12.23L91.93-12.23Q91.93-15.16 90.37-17.19Q88.80-19.22 86.11-19.22L86.11-19.22Q83.38-19.22 81.73-17.13Q80.09-15.04 80.02-12.23Z M102.23 0L98.60 0L98.60-30.86L102.23-30.86L102.23 0Z M110.70 0L107.07 0L107.07-30.86L110.70-30.86L110.70 0Z M117.34-5.70L117.34-5.70Q117.34-4.30 118.51-3.32Q119.68-2.34 121.67-2.34L121.67-2.34Q124.33-2.34 126.18-4.06Q128.04-5.78 128.04-8.48L128.04-8.48L128.04-11.13Q126.48-10.74 122.96-10.20L122.96-10.20Q117.34-9.26 117.34-5.70ZM113.66-5.39L113.66-5.39Q113.66-11.45 122.84-12.85L122.84-12.85Q126.83-13.48 128.04-13.87L128.04-13.87L128.04-15.08Q128.04-16.95 126.73-18.13Q125.42-19.30 123.04-19.30L123.04-19.30Q121.16-19.30 119.43-18.42Q117.69-17.54 116.52-16.09L116.52-16.09L114.21-18.05Q115.81-19.96 118.12-21.09Q120.42-22.23 122.96-22.23L122.96-22.23Q131.67-22.23 131.67-13.63L131.67-13.63L131.67 0L128.16 0L128.16-3.24Q127.49-1.64 125.62-0.47Q123.74 0.70 121.20 0.70L121.20 0.70Q117.65 0.70 115.66-1.00Q113.66-2.70 113.66-5.39Z M139.09 0L135.38 0L135.38-21.52L138.97-21.52L138.97-18.16L139.01-18.16Q139.52-19.61 141.25-20.92Q142.99-22.23 145.53-22.23L145.53-22.23Q148.62-22.23 150.55-20.31Q152.48-18.40 152.48-13.91L152.48-13.91L152.48 0L148.77 0L148.77-13.32Q148.77-19.14 144.71-19.14L144.71-19.14Q142.41-19.14 140.75-17.25Q139.09-15.35 139.09-12.70L139.09-12.70L139.09 0Z M23.16 42L3.87 42L3.87 12.20L22.81 12.20L22.81 15.44L7.66 15.44L7.66 25.01L21.33 25.01L21.33 28.17L7.66 28.17L7.66 38.76L23.16 38.76L23.16 42Z M29.25 42L25.54 42L25.54 20.48L29.13 20.48L29.13 23.84L29.17 23.84Q29.68 22.39 31.42 21.08Q33.16 19.77 35.70 19.77L35.70 19.77Q38.78 19.77 40.71 21.69Q42.65 23.60 42.65 28.09L42.65 28.09L42.65 42L38.94 42L38.94 28.68Q38.94 22.86 34.88 22.86L34.88 22.86Q32.57 22.86 30.91 24.75Q29.25 26.65 29.25 29.30L29.25 29.30L29.25 42Z M44.95 31.10L44.95 31.10Q44.95 26.02 47.72 22.90Q50.49 19.77 54.83 19.77L54.83 19.77Q59.16 19.77 61.76 22.86Q64.36 25.95 64.36 30.75L64.36 30.75Q64.36 31.38 64.28 32.47L64.28 32.47L48.66 32.47Q48.66 35.44 50.36 37.57Q52.05 39.70 55.02 39.70L55.02 39.70Q59.01 39.70 60.84 36.26L60.84 36.26L63.93 37.23Q62.91 39.62 60.63 41.16Q58.34 42.70 54.98 42.70L54.98 42.70Q50.49 42.70 47.72 39.52Q44.95 36.34 44.95 31.10ZM48.73 29.77L48.73 29.77L60.65 29.77Q60.65 26.84 59.09 24.81Q57.52 22.78 54.83 22.78L54.83 22.78Q52.09 22.78 50.45 24.87Q48.81 26.96 48.73 29.77Z M70.56 42L66.85 42L66.85 20.48L70.37 20.48L70.37 23.33Q70.99 21.96 72.44 20.87Q73.88 19.77 76.03 19.77L76.03 19.77Q77.67 19.77 79 20.32L79 20.32L79 23.64Q77.59 23.09 76.03 23.09L76.03 23.09Q73.41 23.09 71.99 25.09Q70.56 27.08 70.56 30.36L70.56 30.36L70.56 42Z M82.23 30.83L82.23 30.83Q82.23 34.46 83.80 36.63Q85.36 38.80 87.86 38.80L87.86 38.80Q90.36 38.80 91.86 36.69Q93.37 34.58 93.37 30.79L93.37 30.79Q93.37 27.08 91.84 24.97Q90.32 22.86 87.90 22.86L87.90 22.86Q85.32 22.86 83.78 25.09Q82.23 27.31 82.23 30.83ZM78.52 30.87L78.52 30.87Q78.52 25.87 81.02 22.82Q83.52 19.77 87.43 19.77L87.43 19.77Q89.73 19.77 91.24 20.96Q92.74 22.16 93.37 23.64L93.37 23.64L93.37 20.48L97 20.48L97 39.30Q97 45.40 94.75 48.37Q92.51 51.34 87.70 51.34L87.70 51.34Q82.43 51.34 79.54 47.35L79.54 47.35L82.04 45.67Q84.42 48.37 87.78 48.37L87.78 48.37Q90.36 48.37 91.84 46.38Q93.33 44.38 93.37 41.10L93.37 41.10Q93.37 40.55 93.39 39.58Q93.41 38.60 93.41 38.21L93.41 38.21Q92.63 39.81 91.10 40.85Q89.58 41.88 87.55 41.88L87.55 41.88Q83.48 41.88 81.00 38.82Q78.52 35.75 78.52 30.87Z M106.60 42L98.32 20.48L102.46 20.48L106.64 32.55Q107.77 35.83 108.32 37.82L108.32 37.82L108.48 37.82Q109.61 34.07 110.08 32.55L110.08 32.55L114.02 20.48L118.13 20.48L108.98 45.32Q107.81 48.56 106.11 49.87Q104.41 51.18 101.95 51.18L101.95 51.18L100.66 51.18L100.66 48.13L101.37 48.13Q102.97 48.13 104.02 47.31Q105.08 46.49 105.82 44.38L105.82 44.38L106.60 42Z"/></g>
</svg>
</g></g><g opacity="1" transform="rotate(0 403.8305 222.1299)">
<svg width="115.2626" height="126.3153" x="403.8305" y="222.1299" version="1.1" preserveAspectRatio="none" viewBox="27 20 146 160">
  <g transform="matrix(1 0 0 1 0 0)" ><g><path d="M118 99.9v1.1l-87.4.3v-1.1c0 .1 87.4-.3 87.4-.3z" data-color="1" class="aIptOCySncolors-0"></path><path d="M118.5 100.4l35 75.9-1 .5-35-75.9 1-.5z" data-color="1" class="aIptOCySncolors-0"></path><path d="M169.5 23l1 .6-52.2 77.2-1-.6L169.5 23z" data-color="1" class="aIptOCySncolors-0"></path><path d="M118.3 100.5l2.9 69.1H120l-2.9-69.1h1.2z" data-color="1" class="aIptOCySncolors-0"></path><path d="M126.1 35.6l1.1.2-8.9 64.8-1.1-.2c-.1 0 8.9-64.8 8.9-64.8z" data-color="1" class="aIptOCySncolors-0"></path><path d="M71 66.8l47 33.2-.7.9-47-33.2c.1 0 .7-.9.7-.9z" data-color="1" class="aIptOCySncolors-0"></path><path d="M103.1 74l15 26.1-1 .6-15-26.1 1-.6z" data-color="1" class="aIptOCySncolors-0"></path><path d="M152.1 86.5l.4 1.1-34.6 13.4-.4-1.1 34.6-13.4z" data-color="1" class="aIptOCySncolors-0"></path><path d="M117.9 100l31.4 13.3-.5 1.1-31.3-13.4.4-1z" data-color="1" class="aIptOCySncolors-0"></path><path d="M117.3 100.2l.9.7L88 142.1l-.9-.7 30.2-41.2z" data-color="1" class="aIptOCySncolors-0"></path><path d="M117.4 100l.6 1-22.6 12.5-.6-1 22.6-12.5z" data-color="1" class="aIptOCySncolors-0"></path><path d="M117.1 100.4l1.1.3-7.7 32.1-1.1-.3 7.7-32.1z" data-color="1" class="aIptOCySncolors-0"></path><path d="M125.1 80.4l1.1.4-7.9 19.8-1.1-.4 7.9-19.8z" data-color="1" class="aIptOCySncolors-0"></path><path d="M126.8 36.4c-1.2 0-2.1-.9-2.1-2.1s.9-2.1 2.1-2.1c1.2 0 2.1.9 2.1 2.1 0 1.1-1 2.1-2.1 2.1zm0-3.1c-.5 0-.9.4-.9.9s.4.9 1 .9c.5 0 .9-.4.9-.9-.1-.4-.5-.9-1-.9z" data-color="1" class="aIptOCySncolors-0"></path><path d="M170.9 24.2c-1.2 0-2.1-.9-2.1-2.1s.9-2.1 2.1-2.1c1.2 0 2.1.9 2.1 2.1 0 1.2-.9 2.1-2.1 2.1zm0-3.1c-.5 0-.9.4-.9.9s.4.9.9.9.9-.4.9-.9c0-.4-.4-.8-.9-.9z" data-color="1" class="aIptOCySncolors-0"></path><path d="M153.6 88.5c-1.2 0-2.1-.9-2.1-2.1 0-1.2.9-2.1 2.1-2.1 1.2 0 2.1.9 2.1 2.1.1 1.2-.9 2.1-2.1 2.1zm0-3c-.5 0-.9.4-.9.9s.4.9.9.9.9-.4.9-.9c.1-.5-.3-.9-.9-.9z" data-color="1" class="aIptOCySncolors-0"></path><path d="M150.6 116.5c-1.2 0-2.1-.9-2.1-2.1 0-1.2.9-2.1 2.1-2.1 1.2 0 2.1.9 2.1 2.1 0 1.1-.9 2.1-2.1 2.1zm0-3.1c-.5 0-.9.4-.9.9s.4.9.9.9.9-.4.9-.9c.1-.4-.3-.9-.9-.9z" data-color="1" class="aIptOCySncolors-0"></path><path d="M153.6 180c-1.2 0-2.1-.9-2.1-2.1 0-1.2.9-2.1 2.1-2.1 1.2 0 2.1.9 2.1 2.1.1 1.2-.9 2.1-2.1 2.1zm0-3c-.5 0-.9.4-.9.9s.4.9.9.9.9-.4.9-.9c.1-.5-.3-.9-.9-.9z" data-color="1" class="aIptOCySncolors-0"></path><path d="M120.8 173.2c-1.2 0-2.1-.9-2.1-2.1s.9-2.1 2.1-2.1c1.2 0 2.1.9 2.1 2.1 0 1.2-1 2.1-2.1 2.1zm0-3c-.5 0-.9.4-.9.9s.4.9.9.9.9-.4.9-.9-.4-.9-.9-.9z" data-color="1" class="aIptOCySncolors-0"></path><path d="M86.7 145c-1.2 0-2.1-.9-2.1-2.1 0-1.2.9-2.1 2.1-2.1 1.2 0 2.1.9 2.1 2.1 0 1.2-1 2.1-2.1 2.1zm0-3c-.5 0-.9.4-.9.9s.4.9.9.9.9-.4.9-.9-.4-.9-.9-.9z" data-color="1" class="aIptOCySncolors-0"></path><path d="M109.7 136.1c-1.2 0-2.1-.9-2.1-2.1s.9-2.1 2.1-2.1c1.2 0 2.1.9 2.1 2.1 0 1.1-.9 2.1-2.1 2.1zm0-3.1c-.5 0-1 .4-1 .9s.4.9.9.9 1-.4 1-.9c.1-.5-.3-.9-.9-.9z" data-color="1" class="aIptOCySncolors-0"></path><path d="M93.9 115.9c-1.2 0-2.1-.9-2.1-2.1 0-1.2.9-2.1 2.1-2.1 1.1 0 2 .9 2.1 2 .1 1.2-.8 2.2-2 2.2h-.1zm0-3.1c-.6 0-1 .5-.9 1 0 .2.1.5.3.6.2.2.4.2.7.2.5 0 .9-.5.9-1-.1-.4-.5-.8-1-.8z" data-color="1" class="aIptOCySncolors-0"></path><path d="M29.1 102.9c-1.2 0-2.1-.9-2.1-2.1 0-1.2.9-2.1 2.1-2.1 1.2 0 2.1.9 2.1 2.1 0 1.2-.9 2.1-2.1 2.1zm0-3c-.5 0-.9.4-.9.9s.4.9.9.9.9-.4.9-.9c.1-.5-.4-.9-.9-.9z" data-color="1" class="aIptOCySncolors-0"></path><path d="M69.4 68.5c-1.2 0-2.1-.9-2.1-2.1s.9-2.1 2.1-2.1 2.1.9 2.1 2.1c0 1.2-.9 2.1-2.1 2.1zm0-3c-.5 0-.9.4-.9.9s.4.9.9.9.9-.4.9-.9c.1-.5-.4-.9-.9-.9z" data-color="1" class="aIptOCySncolors-0"></path><path d="M101.9 75.1c-1.2 0-2.1-.9-2.1-2.1 0-1.2.9-2.1 2.1-2.1 1.2 0 2.1.9 2.1 2.1 0 1.2-.9 2.1-2.1 2.1zm0-3c-.5 0-1 .4-1 .9s.4.9.9.9 1-.4 1-.9-.4-.9-.9-.9z" data-color="1" class="aIptOCySncolors-0"></path><path d="M126.2 81.3c-1.2 0-2.1-.9-2.1-2.1 0-1.2.9-2.1 2.1-2.1 1.2 0 2.1.9 2.1 2.1 0 1.2-1 2.1-2.1 2.1zm0-3c-.5 0-.9.4-.9.9s.4.9.9.9.9-.4.9-.9-.4-.9-.9-.9z" data-color="1" class="aIptOCySncolors-0"></path></g></g>
</svg>
</g><g opacity="1" transform="rotate(0 525.9865 223.1543)">
<svg width="2.5263" height="126.3153" x="525.9865" y="223.1543" version="1.1" preserveAspectRatio="none" viewBox="0 0 2.5263 126.3153">
  <rect x="0" y="0" width="2.5263" height="126.3153" class="companyName shapeStroke-str" style="stroke-width:0;" rx="0px" ry="0px" />
</svg>
</g></svg>